<svg xmlns="http://www.w3.org/2000/svg" xmlns:xlink="http://www.w3.org/1999/xlink" width="9" height="6" viewBox="0 0 9 6">
  <defs>
    <style>
      .cls-1 {
        fill: #fff;
        fill-rule: evenodd;
        filter: url(#filter);
      }
    </style>
    <filter id="filter" x="654" y="771" width="9" height="6" filterUnits="userSpaceOnUse">
      <feFlood result="flood" flood-color="#f1d02f"/>
      <feComposite result="composite" operator="in" in2="SourceGraphic"/>
      <feBlend result="blend" in2="SourceGraphic"/>
    </filter>
  </defs>
  <path id="_" data-name="&gt;" class="cls-1" d="M661.7,776.625a0.77,0.77,0,0,0,.661.378,0.574,0.574,0,0,0,.644-0.39,1.369,1.369,0,0,0-.313-0.578l-3.394-4.606a0.965,0.965,0,0,0-1.6,0l-3.393,4.606a1.369,1.369,0,0,0-.313.578,0.574,0.574,0,0,0,.644.39,0.77,0.77,0,0,0,.661-0.378l3.2-4.393Z" transform="translate(-654 -771)"/>
</svg>
