<svg xmlns="http://www.w3.org/2000/svg" width="13.188" height="25.312" viewBox="0 0 13.188 25.312">
  <defs>
    <style>
      .cls-1 {
        fill: #414594;
        fill-rule: evenodd;
      }
    </style>
  </defs>
  <path class="cls-1" d="M569.313,360.191h2.865v11.43a0.415,0.415,0,0,0,.422.408h4.858a0.414,0.414,0,0,0,.42-0.408V360.245h3.294a0.416,0.416,0,0,0,.418-0.361l0.5-4.208a0.4,0.4,0,0,0-.105-0.318,0.427,0.427,0,0,0-.314-0.137h-3.793v-2.638a1.115,1.115,0,0,1,1.312-1.2h2.481a0.415,0.415,0,0,0,.421-0.409v-3.861a0.415,0.415,0,0,0-.421-0.409h-3.418c-0.024,0-.078,0-0.157,0a6.681,6.681,0,0,0-4.282,1.565,4.268,4.268,0,0,0-1.494,3.869v3.084h-3.008a0.415,0.415,0,0,0-.421.409v4.153A0.415,0.415,0,0,0,569.313,360.191Z" transform="translate(-568.906 -346.719)"/>
</svg>
