<svg xmlns="http://www.w3.org/2000/svg" width="14.688" height="25.312" viewBox="0 0 14.688 25.312">
  <defs>
    <style>
      .cls-1 {
        fill: #ef8116;
        fill-rule: evenodd;
      }
    </style>
  </defs>
  <path id="Forma_1" data-name="Forma 1" class="cls-1" d="M504.679,364.016a9.315,9.315,0,0,1-5.073-1.872,7.024,7.024,0,0,1-.536-0.454,1.521,1.521,0,0,1-.2-2.116,1.421,1.421,0,0,1,1.921-.446,3.1,3.1,0,0,1,.418.256,8.091,8.091,0,0,0,9.22.088,2.471,2.471,0,0,1,.9-0.48,1.391,1.391,0,0,1,1.615.666,1.451,1.451,0,0,1-.1,1.859,7.433,7.433,0,0,1-2.682,1.791,12.174,12.174,0,0,1-3.044.7c0.157,0.177.231,0.264,0.329,0.366,1.409,1.463,2.824,2.921,4.229,4.389a1.48,1.48,0,0,1,.314,1.7,1.665,1.665,0,0,1-1.564,1.01,1.511,1.511,0,0,1-.992-0.525c-1.063-1.106-2.147-2.192-3.188-3.319-0.3-.328-0.449-0.265-0.717.019-1.07,1.139-2.157,2.26-3.251,3.375a1.335,1.335,0,0,1-1.646.305,1.728,1.728,0,0,1-.96-1.585,1.611,1.611,0,0,1,.515-1.064q2.092-2.159,4.177-4.326C504.459,364.266,504.544,364.165,504.679,364.016ZM505.834,359a6.407,6.407,0,1,1,6.231-6.321A6.308,6.308,0,0,1,505.834,359Zm3.077-6.41a3.031,3.031,0,1,0-3.012,3.141A3.07,3.07,0,0,0,508.911,352.592Z" transform="translate(-498.531 -346.188)"/>
</svg>
